%TF.GenerationSoftware,KiCad,Pcbnew,6.0.5-a6ca702e91~116~ubuntu22.04.1*%
%TF.CreationDate,2022-07-07T11:21:45+05:30*%
%TF.ProjectId,macro_pad,6d616372-6f5f-4706-9164-2e6b69636164,rev?*%
%TF.SameCoordinates,Original*%
%TF.FileFunction,Paste,Top*%
%TF.FilePolarity,Positive*%
%FSLAX46Y46*%
G04 Gerber Fmt 4.6, Leading zero omitted, Abs format (unit mm)*
G04 Created by KiCad (PCBNEW 6.0.5-a6ca702e91~116~ubuntu22.04.1) date 2022-07-07 11:21:45*
%MOMM*%
%LPD*%
G01*
G04 APERTURE LIST*
G04 Aperture macros list*
%AMRoundRect*
0 Rectangle with rounded corners*
0 $1 Rounding radius*
0 $2 $3 $4 $5 $6 $7 $8 $9 X,Y pos of 4 corners*
0 Add a 4 corners polygon primitive as box body*
4,1,4,$2,$3,$4,$5,$6,$7,$8,$9,$2,$3,0*
0 Add four circle primitives for the rounded corners*
1,1,$1+$1,$2,$3*
1,1,$1+$1,$4,$5*
1,1,$1+$1,$6,$7*
1,1,$1+$1,$8,$9*
0 Add four rect primitives between the rounded corners*
20,1,$1+$1,$2,$3,$4,$5,0*
20,1,$1+$1,$4,$5,$6,$7,0*
20,1,$1+$1,$6,$7,$8,$9,0*
20,1,$1+$1,$8,$9,$2,$3,0*%
G04 Aperture macros list end*
%ADD10R,1.600000X3.200000*%
%ADD11RoundRect,0.250000X0.250000X0.475000X-0.250000X0.475000X-0.250000X-0.475000X0.250000X-0.475000X0*%
G04 APERTURE END LIST*
D10*
%TO.C,U2*%
X99880000Y-99580000D03*
X102420000Y-99580000D03*
X104960000Y-99580000D03*
X107500000Y-99580000D03*
X110040000Y-99580000D03*
X112580000Y-99580000D03*
X115120000Y-99580000D03*
X117660000Y-99580000D03*
X120200000Y-99580000D03*
X122740000Y-99580000D03*
X125280000Y-99580000D03*
X127820000Y-99580000D03*
X130360000Y-99580000D03*
X132900000Y-99580000D03*
X135440000Y-99580000D03*
X137980000Y-99580000D03*
X140520000Y-99580000D03*
X143060000Y-99580000D03*
X145600000Y-99580000D03*
X148140000Y-99580000D03*
X148120000Y-80200000D03*
X145580000Y-80200000D03*
X143040000Y-80200000D03*
X140500000Y-80200000D03*
X137960000Y-80200000D03*
X135420000Y-80200000D03*
X132880000Y-80200000D03*
X130340000Y-80200000D03*
X127800000Y-80200000D03*
X125260000Y-80200000D03*
X122720000Y-80200000D03*
X120180000Y-80200000D03*
X117640000Y-80200000D03*
X115100000Y-80200000D03*
X112560000Y-80200000D03*
X110020000Y-80200000D03*
X107480000Y-80200000D03*
X104940000Y-80200000D03*
X102400000Y-80200000D03*
X99860000Y-80200000D03*
%TD*%
D11*
%TO.C,C1*%
X157240000Y-96260000D03*
X155340000Y-96260000D03*
%TD*%
M02*
