%TF.GenerationSoftware,KiCad,Pcbnew,6.0.5-a6ca702e91~116~ubuntu22.04.1*%
%TF.CreationDate,2022-07-07T11:21:45+05:30*%
%TF.ProjectId,macro_pad,6d616372-6f5f-4706-9164-2e6b69636164,rev?*%
%TF.SameCoordinates,Original*%
%TF.FileFunction,Soldermask,Top*%
%TF.FilePolarity,Negative*%
%FSLAX46Y46*%
G04 Gerber Fmt 4.6, Leading zero omitted, Abs format (unit mm)*
G04 Created by KiCad (PCBNEW 6.0.5-a6ca702e91~116~ubuntu22.04.1) date 2022-07-07 11:21:45*
%MOMM*%
%LPD*%
G01*
G04 APERTURE LIST*
G04 Aperture macros list*
%AMRoundRect*
0 Rectangle with rounded corners*
0 $1 Rounding radius*
0 $2 $3 $4 $5 $6 $7 $8 $9 X,Y pos of 4 corners*
0 Add a 4 corners polygon primitive as box body*
4,1,4,$2,$3,$4,$5,$6,$7,$8,$9,$2,$3,0*
0 Add four circle primitives for the rounded corners*
1,1,$1+$1,$2,$3*
1,1,$1+$1,$4,$5*
1,1,$1+$1,$6,$7*
1,1,$1+$1,$8,$9*
0 Add four rect primitives between the rounded corners*
20,1,$1+$1,$2,$3,$4,$5,0*
20,1,$1+$1,$4,$5,$6,$7,0*
20,1,$1+$1,$6,$7,$8,$9,0*
20,1,$1+$1,$8,$9,$2,$3,0*%
G04 Aperture macros list end*
%ADD10R,1.000000X1.000000*%
%ADD11O,1.000000X1.000000*%
%ADD12R,1.600000X3.200000*%
%ADD13C,1.700000*%
%ADD14C,4.000000*%
%ADD15C,2.200000*%
%ADD16RoundRect,0.250000X0.250000X0.475000X-0.250000X0.475000X-0.250000X-0.475000X0.250000X-0.475000X0*%
%ADD17R,2.200000X2.200000*%
%ADD18O,2.200000X2.200000*%
%ADD19R,1.700000X1.700000*%
%ADD20O,1.700000X1.700000*%
%ADD21C,5.000000*%
%ADD22R,1.524000X1.524000*%
%ADD23C,1.524000*%
G04 APERTURE END LIST*
D10*
%TO.C,D1*%
X147000000Y-152000000D03*
D11*
X145730000Y-152000000D03*
X144460000Y-152000000D03*
X143190000Y-152000000D03*
%TD*%
D12*
%TO.C,U2*%
X99880000Y-99580000D03*
X102420000Y-99580000D03*
X104960000Y-99580000D03*
X107500000Y-99580000D03*
X110040000Y-99580000D03*
X112580000Y-99580000D03*
X115120000Y-99580000D03*
X117660000Y-99580000D03*
X120200000Y-99580000D03*
X122740000Y-99580000D03*
X125280000Y-99580000D03*
X127820000Y-99580000D03*
X130360000Y-99580000D03*
X132900000Y-99580000D03*
X135440000Y-99580000D03*
X137980000Y-99580000D03*
X140520000Y-99580000D03*
X143060000Y-99580000D03*
X145600000Y-99580000D03*
X148140000Y-99580000D03*
X148120000Y-80200000D03*
X145580000Y-80200000D03*
X143040000Y-80200000D03*
X140500000Y-80200000D03*
X137960000Y-80200000D03*
X135420000Y-80200000D03*
X132880000Y-80200000D03*
X130340000Y-80200000D03*
X127800000Y-80200000D03*
X125260000Y-80200000D03*
X122720000Y-80200000D03*
X120180000Y-80200000D03*
X117640000Y-80200000D03*
X115100000Y-80200000D03*
X112560000Y-80200000D03*
X110020000Y-80200000D03*
X107480000Y-80200000D03*
X104940000Y-80200000D03*
X102400000Y-80200000D03*
X99860000Y-80200000D03*
%TD*%
D13*
%TO.C,SW12*%
X168920000Y-151000000D03*
D14*
X174000000Y-151000000D03*
D13*
X179080000Y-151000000D03*
D15*
X176540000Y-145920000D03*
X170190000Y-148460000D03*
%TD*%
D14*
%TO.C,SW6*%
X107000000Y-132000000D03*
D13*
X101920000Y-132000000D03*
X112080000Y-132000000D03*
D15*
X109540000Y-126920000D03*
X103190000Y-129460000D03*
%TD*%
D13*
%TO.C,SW8*%
X150080000Y-132000000D03*
X139920000Y-132000000D03*
D14*
X145000000Y-132000000D03*
D15*
X147540000Y-126920000D03*
X141190000Y-129460000D03*
%TD*%
D14*
%TO.C,SW1*%
X107000000Y-113000000D03*
D13*
X101920000Y-113000000D03*
X112080000Y-113000000D03*
D15*
X109540000Y-107920000D03*
X103190000Y-110460000D03*
%TD*%
D13*
%TO.C,SW9*%
X169080000Y-132000000D03*
X158920000Y-132000000D03*
D14*
X164000000Y-132000000D03*
D15*
X166540000Y-126920000D03*
X160190000Y-129460000D03*
%TD*%
D16*
%TO.C,C1*%
X157240000Y-96260000D03*
X155340000Y-96260000D03*
%TD*%
D17*
%TO.C,D2*%
X164080000Y-100000000D03*
D18*
X153920000Y-100000000D03*
%TD*%
D13*
%TO.C,SW2*%
X131080000Y-113000000D03*
D14*
X126000000Y-113000000D03*
D13*
X120920000Y-113000000D03*
D15*
X128540000Y-107920000D03*
X122190000Y-110460000D03*
%TD*%
D13*
%TO.C,SW5*%
X177920000Y-113000000D03*
D14*
X183000000Y-113000000D03*
D13*
X188080000Y-113000000D03*
D15*
X185540000Y-107920000D03*
X179190000Y-110460000D03*
%TD*%
D13*
%TO.C,SW11*%
X121080000Y-151000000D03*
X110920000Y-151000000D03*
D14*
X116000000Y-151000000D03*
D15*
X118540000Y-145920000D03*
X112190000Y-148460000D03*
%TD*%
D14*
%TO.C,SW7*%
X126000000Y-132000000D03*
D13*
X120920000Y-132000000D03*
X131080000Y-132000000D03*
D15*
X128540000Y-126920000D03*
X122190000Y-129460000D03*
%TD*%
D13*
%TO.C,SW3*%
X150080000Y-113000000D03*
D14*
X145000000Y-113000000D03*
D13*
X139920000Y-113000000D03*
D15*
X147540000Y-107920000D03*
X141190000Y-110460000D03*
%TD*%
D19*
%TO.C,J1*%
X130000000Y-85000000D03*
D20*
X130000000Y-87540000D03*
%TD*%
D21*
%TO.C,H2*%
X190000000Y-82000000D03*
%TD*%
%TO.C,H4*%
X190000000Y-156000000D03*
%TD*%
%TO.C,H3*%
X101000000Y-156000000D03*
%TD*%
D13*
%TO.C,SW10*%
X177920000Y-132000000D03*
D14*
X183000000Y-132000000D03*
D13*
X188080000Y-132000000D03*
D15*
X185540000Y-126920000D03*
X179190000Y-129460000D03*
%TD*%
D14*
%TO.C,SW4*%
X164000000Y-113000000D03*
D13*
X158920000Y-113000000D03*
X169080000Y-113000000D03*
D15*
X166540000Y-107920000D03*
X160190000Y-110460000D03*
%TD*%
D22*
%TO.C,U3*%
X155000000Y-92540000D03*
D23*
X157540000Y-92540000D03*
X155000000Y-90000000D03*
X157540000Y-90000000D03*
X155000000Y-87460000D03*
X157540000Y-87460000D03*
X155000000Y-84920000D03*
X157540000Y-84920000D03*
%TD*%
M02*
