M48
; DRILL file {KiCad 6.0.5-a6ca702e91~116~ubuntu22.04.1} date Thu Jul  7 11:21:49 2022
; FORMAT={-:-/ absolute / inch / decimal}
; #@! TF.CreationDate,2022-07-07T11:21:49+05:30
; #@! TF.GenerationSoftware,Kicad,Pcbnew,6.0.5-a6ca702e91~116~ubuntu22.04.1
; #@! TF.FileFunction,MixedPlating,1,2
FMAT,2
INCH
; #@! TA.AperFunction,Plated,PTH,ViaDrill
T1C0.0157
; #@! TA.AperFunction,Plated,PTH,ComponentDrill
T2C0.0256
; #@! TA.AperFunction,Plated,PTH,ComponentDrill
T3C0.0300
; #@! TA.AperFunction,Plated,PTH,ComponentDrill
T4C0.0394
; #@! TA.AperFunction,Plated,PTH,ComponentDrill
T5C0.0433
; #@! TA.AperFunction,Plated,PTH,ComponentDrill
T6C0.0591
; #@! TA.AperFunction,NonPlated,NPTH,ComponentDrill
T7C0.0669
; #@! TA.AperFunction,NonPlated,NPTH,ComponentDrill
T8C0.1575
; #@! TA.AperFunction,NonPlated,NPTH,ComponentDrill
T9C0.1969
%
G90
G05
T1
X3.9346Y-3.5394
X4.0457Y-3.5429
X4.0571Y-4.8043
X4.0976Y-5.5209
X4.1315Y-3.2563
X4.1331Y-3.8146
X4.4051Y-5.4256
X4.5303Y-3.7417
X4.5323Y-4.0949
X4.5346Y-5.0949
X4.6307Y-3.2575
X4.6343Y-3.813
X4.7016Y-5.1039
X4.7177Y-4.1071
X4.8374Y-4.1043
X4.8457Y-4.8083
X4.8547Y-5.5283
X5.1291Y-3.0677
X5.135Y-3.8083
X5.2335Y-3.4236
X5.3315Y-5.0921
X5.4366Y-3.8236
X5.4913Y-5.4248
X5.526Y-3.8252
X5.6028Y-4.8122
X5.6287Y-3.8339
X5.6787Y-3.2622
X5.7311Y-3.8236
X6.0256Y-4.1098
X6.115Y-5.0961
X6.3402Y-5.5047
X6.3433Y-4.8146
X6.7756Y-5.4902
X6.7953Y-4.0395
X6.8323Y-4.0776
X6.8504Y-5.0988
X7.0953Y-4.8157
X7.1551Y-5.4531
T2
X5.6374Y-5.9843
X5.6874Y-5.9843
X5.7374Y-5.9843
X5.7874Y-5.9843
T3
X6.1024Y-3.3433
X6.1024Y-3.4433
X6.1024Y-3.5433
X6.1024Y-3.6433
X6.2024Y-3.3433
X6.2024Y-3.4433
X6.2024Y-3.5433
X6.2024Y-3.6433
T4
X5.1181Y-3.3465
X5.1181Y-3.4465
T5
X6.0598Y-3.937
X6.4598Y-3.937
T6
X4.0626Y-4.3488
X4.0626Y-5.0969
X4.3126Y-4.2488
X4.3126Y-4.9969
X4.4169Y-5.8449
X4.6669Y-5.7449
X4.8106Y-4.3488
X4.8106Y-5.0969
X5.0606Y-4.2488
X5.0606Y-4.9969
X5.5587Y-4.3488
X5.5587Y-5.0969
X5.8087Y-4.2488
X5.8087Y-4.9969
X6.3067Y-4.3488
X6.3067Y-5.0969
X6.5567Y-4.2488
X6.5567Y-4.9969
X6.7004Y-5.8449
X6.9504Y-5.7449
X7.0547Y-4.3488
X7.0547Y-5.0969
X7.3047Y-4.2488
X7.3047Y-4.9969
T7
X4.0126Y-4.4488
X4.0126Y-5.1969
X4.3669Y-5.9449
X4.4126Y-4.4488
X4.4126Y-5.1969
X4.7606Y-4.4488
X4.7606Y-5.1969
X4.7669Y-5.9449
X5.1606Y-4.4488
X5.1606Y-5.1969
X5.5087Y-4.4488
X5.5087Y-5.1969
X5.9087Y-4.4488
X5.9087Y-5.1969
X6.2567Y-4.4488
X6.2567Y-5.1969
X6.6504Y-5.9449
X6.6567Y-4.4488
X6.6567Y-5.1969
X7.0047Y-4.4488
X7.0047Y-5.1969
X7.0504Y-5.9449
X7.4047Y-4.4488
X7.4047Y-5.1969
T8
X4.2126Y-4.4488
X4.2126Y-5.1969
X4.5669Y-5.9449
X4.9606Y-4.4488
X4.9606Y-5.1969
X5.7087Y-4.4488
X5.7087Y-5.1969
X6.4567Y-4.4488
X6.4567Y-5.1969
X6.8504Y-5.9449
X7.2047Y-4.4488
X7.2047Y-5.1969
T9
X3.9764Y-6.1417
X7.4803Y-3.2283
X7.4803Y-6.1417
T0
M30
