%TF.GenerationSoftware,KiCad,Pcbnew,6.0.5-a6ca702e91~116~ubuntu22.04.1*%
%TF.CreationDate,2022-07-07T11:21:45+05:30*%
%TF.ProjectId,macro_pad,6d616372-6f5f-4706-9164-2e6b69636164,rev?*%
%TF.SameCoordinates,Original*%
%TF.FileFunction,Legend,Bot*%
%TF.FilePolarity,Positive*%
%FSLAX46Y46*%
G04 Gerber Fmt 4.6, Leading zero omitted, Abs format (unit mm)*
G04 Created by KiCad (PCBNEW 6.0.5-a6ca702e91~116~ubuntu22.04.1) date 2022-07-07 11:21:45*
%MOMM*%
%LPD*%
G01*
G04 APERTURE LIST*
%ADD10C,0.150000*%
%ADD11C,0.120000*%
G04 APERTURE END LIST*
D10*
%TO.C,R6*%
X106272380Y-136833333D02*
X105796190Y-136500000D01*
X106272380Y-136261904D02*
X105272380Y-136261904D01*
X105272380Y-136642857D01*
X105320000Y-136738095D01*
X105367619Y-136785714D01*
X105462857Y-136833333D01*
X105605714Y-136833333D01*
X105700952Y-136785714D01*
X105748571Y-136738095D01*
X105796190Y-136642857D01*
X105796190Y-136261904D01*
X105272380Y-137690476D02*
X105272380Y-137500000D01*
X105320000Y-137404761D01*
X105367619Y-137357142D01*
X105510476Y-137261904D01*
X105700952Y-137214285D01*
X106081904Y-137214285D01*
X106177142Y-137261904D01*
X106224761Y-137309523D01*
X106272380Y-137404761D01*
X106272380Y-137595238D01*
X106224761Y-137690476D01*
X106177142Y-137738095D01*
X106081904Y-137785714D01*
X105843809Y-137785714D01*
X105748571Y-137738095D01*
X105700952Y-137690476D01*
X105653333Y-137595238D01*
X105653333Y-137404761D01*
X105700952Y-137309523D01*
X105748571Y-137261904D01*
X105843809Y-137214285D01*
%TO.C,R17*%
X133762380Y-85702142D02*
X133286190Y-85368809D01*
X133762380Y-85130714D02*
X132762380Y-85130714D01*
X132762380Y-85511666D01*
X132810000Y-85606904D01*
X132857619Y-85654523D01*
X132952857Y-85702142D01*
X133095714Y-85702142D01*
X133190952Y-85654523D01*
X133238571Y-85606904D01*
X133286190Y-85511666D01*
X133286190Y-85130714D01*
X133762380Y-86654523D02*
X133762380Y-86083095D01*
X133762380Y-86368809D02*
X132762380Y-86368809D01*
X132905238Y-86273571D01*
X133000476Y-86178333D01*
X133048095Y-86083095D01*
X132762380Y-86987857D02*
X132762380Y-87654523D01*
X133762380Y-87225952D01*
%TO.C,R3*%
X144272380Y-118833333D02*
X143796190Y-118500000D01*
X144272380Y-118261904D02*
X143272380Y-118261904D01*
X143272380Y-118642857D01*
X143320000Y-118738095D01*
X143367619Y-118785714D01*
X143462857Y-118833333D01*
X143605714Y-118833333D01*
X143700952Y-118785714D01*
X143748571Y-118738095D01*
X143796190Y-118642857D01*
X143796190Y-118261904D01*
X143272380Y-119166666D02*
X143272380Y-119785714D01*
X143653333Y-119452380D01*
X143653333Y-119595238D01*
X143700952Y-119690476D01*
X143748571Y-119738095D01*
X143843809Y-119785714D01*
X144081904Y-119785714D01*
X144177142Y-119738095D01*
X144224761Y-119690476D01*
X144272380Y-119595238D01*
X144272380Y-119309523D01*
X144224761Y-119214285D01*
X144177142Y-119166666D01*
%TO.C,R2*%
X125272380Y-118833333D02*
X124796190Y-118500000D01*
X125272380Y-118261904D02*
X124272380Y-118261904D01*
X124272380Y-118642857D01*
X124320000Y-118738095D01*
X124367619Y-118785714D01*
X124462857Y-118833333D01*
X124605714Y-118833333D01*
X124700952Y-118785714D01*
X124748571Y-118738095D01*
X124796190Y-118642857D01*
X124796190Y-118261904D01*
X124367619Y-119214285D02*
X124320000Y-119261904D01*
X124272380Y-119357142D01*
X124272380Y-119595238D01*
X124320000Y-119690476D01*
X124367619Y-119738095D01*
X124462857Y-119785714D01*
X124558095Y-119785714D01*
X124700952Y-119738095D01*
X125272380Y-119166666D01*
X125272380Y-119785714D01*
%TO.C,R7*%
X125272380Y-136833333D02*
X124796190Y-136500000D01*
X125272380Y-136261904D02*
X124272380Y-136261904D01*
X124272380Y-136642857D01*
X124320000Y-136738095D01*
X124367619Y-136785714D01*
X124462857Y-136833333D01*
X124605714Y-136833333D01*
X124700952Y-136785714D01*
X124748571Y-136738095D01*
X124796190Y-136642857D01*
X124796190Y-136261904D01*
X124272380Y-137166666D02*
X124272380Y-137833333D01*
X125272380Y-137404761D01*
%TO.C,U1*%
X112452380Y-89238095D02*
X113261904Y-89238095D01*
X113357142Y-89285714D01*
X113404761Y-89333333D01*
X113452380Y-89428571D01*
X113452380Y-89619047D01*
X113404761Y-89714285D01*
X113357142Y-89761904D01*
X113261904Y-89809523D01*
X112452380Y-89809523D01*
X113452380Y-90809523D02*
X113452380Y-90238095D01*
X113452380Y-90523809D02*
X112452380Y-90523809D01*
X112595238Y-90428571D01*
X112690476Y-90333333D01*
X112738095Y-90238095D01*
%TO.C,R16*%
X140402380Y-85739642D02*
X139926190Y-85406309D01*
X140402380Y-85168214D02*
X139402380Y-85168214D01*
X139402380Y-85549166D01*
X139450000Y-85644404D01*
X139497619Y-85692023D01*
X139592857Y-85739642D01*
X139735714Y-85739642D01*
X139830952Y-85692023D01*
X139878571Y-85644404D01*
X139926190Y-85549166D01*
X139926190Y-85168214D01*
X140402380Y-86692023D02*
X140402380Y-86120595D01*
X140402380Y-86406309D02*
X139402380Y-86406309D01*
X139545238Y-86311071D01*
X139640476Y-86215833D01*
X139688095Y-86120595D01*
X139402380Y-87549166D02*
X139402380Y-87358690D01*
X139450000Y-87263452D01*
X139497619Y-87215833D01*
X139640476Y-87120595D01*
X139830952Y-87072976D01*
X140211904Y-87072976D01*
X140307142Y-87120595D01*
X140354761Y-87168214D01*
X140402380Y-87263452D01*
X140402380Y-87453928D01*
X140354761Y-87549166D01*
X140307142Y-87596785D01*
X140211904Y-87644404D01*
X139973809Y-87644404D01*
X139878571Y-87596785D01*
X139830952Y-87549166D01*
X139783333Y-87453928D01*
X139783333Y-87263452D01*
X139830952Y-87168214D01*
X139878571Y-87120595D01*
X139973809Y-87072976D01*
%TO.C,R11*%
X110632380Y-140357142D02*
X110156190Y-140023809D01*
X110632380Y-139785714D02*
X109632380Y-139785714D01*
X109632380Y-140166666D01*
X109680000Y-140261904D01*
X109727619Y-140309523D01*
X109822857Y-140357142D01*
X109965714Y-140357142D01*
X110060952Y-140309523D01*
X110108571Y-140261904D01*
X110156190Y-140166666D01*
X110156190Y-139785714D01*
X110632380Y-141309523D02*
X110632380Y-140738095D01*
X110632380Y-141023809D02*
X109632380Y-141023809D01*
X109775238Y-140928571D01*
X109870476Y-140833333D01*
X109918095Y-140738095D01*
X110632380Y-142261904D02*
X110632380Y-141690476D01*
X110632380Y-141976190D02*
X109632380Y-141976190D01*
X109775238Y-141880952D01*
X109870476Y-141785714D01*
X109918095Y-141690476D01*
%TO.C,R8*%
X144272380Y-136833333D02*
X143796190Y-136500000D01*
X144272380Y-136261904D02*
X143272380Y-136261904D01*
X143272380Y-136642857D01*
X143320000Y-136738095D01*
X143367619Y-136785714D01*
X143462857Y-136833333D01*
X143605714Y-136833333D01*
X143700952Y-136785714D01*
X143748571Y-136738095D01*
X143796190Y-136642857D01*
X143796190Y-136261904D01*
X143700952Y-137404761D02*
X143653333Y-137309523D01*
X143605714Y-137261904D01*
X143510476Y-137214285D01*
X143462857Y-137214285D01*
X143367619Y-137261904D01*
X143320000Y-137309523D01*
X143272380Y-137404761D01*
X143272380Y-137595238D01*
X143320000Y-137690476D01*
X143367619Y-137738095D01*
X143462857Y-137785714D01*
X143510476Y-137785714D01*
X143605714Y-137738095D01*
X143653333Y-137690476D01*
X143700952Y-137595238D01*
X143700952Y-137404761D01*
X143748571Y-137309523D01*
X143796190Y-137261904D01*
X143891428Y-137214285D01*
X144081904Y-137214285D01*
X144177142Y-137261904D01*
X144224761Y-137309523D01*
X144272380Y-137404761D01*
X144272380Y-137595238D01*
X144224761Y-137690476D01*
X144177142Y-137738095D01*
X144081904Y-137785714D01*
X143891428Y-137785714D01*
X143796190Y-137738095D01*
X143748571Y-137690476D01*
X143700952Y-137595238D01*
%TO.C,R5*%
X182272380Y-118833333D02*
X181796190Y-118500000D01*
X182272380Y-118261904D02*
X181272380Y-118261904D01*
X181272380Y-118642857D01*
X181320000Y-118738095D01*
X181367619Y-118785714D01*
X181462857Y-118833333D01*
X181605714Y-118833333D01*
X181700952Y-118785714D01*
X181748571Y-118738095D01*
X181796190Y-118642857D01*
X181796190Y-118261904D01*
X181272380Y-119738095D02*
X181272380Y-119261904D01*
X181748571Y-119214285D01*
X181700952Y-119261904D01*
X181653333Y-119357142D01*
X181653333Y-119595238D01*
X181700952Y-119690476D01*
X181748571Y-119738095D01*
X181843809Y-119785714D01*
X182081904Y-119785714D01*
X182177142Y-119738095D01*
X182224761Y-119690476D01*
X182272380Y-119595238D01*
X182272380Y-119357142D01*
X182224761Y-119261904D01*
X182177142Y-119214285D01*
%TO.C,R15*%
X168632380Y-140357142D02*
X168156190Y-140023809D01*
X168632380Y-139785714D02*
X167632380Y-139785714D01*
X167632380Y-140166666D01*
X167680000Y-140261904D01*
X167727619Y-140309523D01*
X167822857Y-140357142D01*
X167965714Y-140357142D01*
X168060952Y-140309523D01*
X168108571Y-140261904D01*
X168156190Y-140166666D01*
X168156190Y-139785714D01*
X168632380Y-141309523D02*
X168632380Y-140738095D01*
X168632380Y-141023809D02*
X167632380Y-141023809D01*
X167775238Y-140928571D01*
X167870476Y-140833333D01*
X167918095Y-140738095D01*
X167632380Y-142214285D02*
X167632380Y-141738095D01*
X168108571Y-141690476D01*
X168060952Y-141738095D01*
X168013333Y-141833333D01*
X168013333Y-142071428D01*
X168060952Y-142166666D01*
X168108571Y-142214285D01*
X168203809Y-142261904D01*
X168441904Y-142261904D01*
X168537142Y-142214285D01*
X168584761Y-142166666D01*
X168632380Y-142071428D01*
X168632380Y-141833333D01*
X168584761Y-141738095D01*
X168537142Y-141690476D01*
%TO.C,U3*%
X168761904Y-87452380D02*
X168761904Y-88261904D01*
X168714285Y-88357142D01*
X168666666Y-88404761D01*
X168571428Y-88452380D01*
X168380952Y-88452380D01*
X168285714Y-88404761D01*
X168238095Y-88357142D01*
X168190476Y-88261904D01*
X168190476Y-87452380D01*
X167809523Y-87452380D02*
X167190476Y-87452380D01*
X167523809Y-87833333D01*
X167380952Y-87833333D01*
X167285714Y-87880952D01*
X167238095Y-87928571D01*
X167190476Y-88023809D01*
X167190476Y-88261904D01*
X167238095Y-88357142D01*
X167285714Y-88404761D01*
X167380952Y-88452380D01*
X167666666Y-88452380D01*
X167761904Y-88404761D01*
X167809523Y-88357142D01*
%TO.C,R13*%
X146272380Y-143357142D02*
X145796190Y-143023809D01*
X146272380Y-142785714D02*
X145272380Y-142785714D01*
X145272380Y-143166666D01*
X145320000Y-143261904D01*
X145367619Y-143309523D01*
X145462857Y-143357142D01*
X145605714Y-143357142D01*
X145700952Y-143309523D01*
X145748571Y-143261904D01*
X145796190Y-143166666D01*
X145796190Y-142785714D01*
X146272380Y-144309523D02*
X146272380Y-143738095D01*
X146272380Y-144023809D02*
X145272380Y-144023809D01*
X145415238Y-143928571D01*
X145510476Y-143833333D01*
X145558095Y-143738095D01*
X145272380Y-144642857D02*
X145272380Y-145261904D01*
X145653333Y-144928571D01*
X145653333Y-145071428D01*
X145700952Y-145166666D01*
X145748571Y-145214285D01*
X145843809Y-145261904D01*
X146081904Y-145261904D01*
X146177142Y-145214285D01*
X146224761Y-145166666D01*
X146272380Y-145071428D01*
X146272380Y-144785714D01*
X146224761Y-144690476D01*
X146177142Y-144642857D01*
%TO.C,R14*%
X149272380Y-143357142D02*
X148796190Y-143023809D01*
X149272380Y-142785714D02*
X148272380Y-142785714D01*
X148272380Y-143166666D01*
X148320000Y-143261904D01*
X148367619Y-143309523D01*
X148462857Y-143357142D01*
X148605714Y-143357142D01*
X148700952Y-143309523D01*
X148748571Y-143261904D01*
X148796190Y-143166666D01*
X148796190Y-142785714D01*
X149272380Y-144309523D02*
X149272380Y-143738095D01*
X149272380Y-144023809D02*
X148272380Y-144023809D01*
X148415238Y-143928571D01*
X148510476Y-143833333D01*
X148558095Y-143738095D01*
X148605714Y-145166666D02*
X149272380Y-145166666D01*
X148224761Y-144928571D02*
X148939047Y-144690476D01*
X148939047Y-145309523D01*
%TO.C,R10*%
X182272380Y-136357142D02*
X181796190Y-136023809D01*
X182272380Y-135785714D02*
X181272380Y-135785714D01*
X181272380Y-136166666D01*
X181320000Y-136261904D01*
X181367619Y-136309523D01*
X181462857Y-136357142D01*
X181605714Y-136357142D01*
X181700952Y-136309523D01*
X181748571Y-136261904D01*
X181796190Y-136166666D01*
X181796190Y-135785714D01*
X182272380Y-137309523D02*
X182272380Y-136738095D01*
X182272380Y-137023809D02*
X181272380Y-137023809D01*
X181415238Y-136928571D01*
X181510476Y-136833333D01*
X181558095Y-136738095D01*
X181272380Y-137928571D02*
X181272380Y-138023809D01*
X181320000Y-138119047D01*
X181367619Y-138166666D01*
X181462857Y-138214285D01*
X181653333Y-138261904D01*
X181891428Y-138261904D01*
X182081904Y-138214285D01*
X182177142Y-138166666D01*
X182224761Y-138119047D01*
X182272380Y-138023809D01*
X182272380Y-137928571D01*
X182224761Y-137833333D01*
X182177142Y-137785714D01*
X182081904Y-137738095D01*
X181891428Y-137690476D01*
X181653333Y-137690476D01*
X181462857Y-137738095D01*
X181367619Y-137785714D01*
X181320000Y-137833333D01*
X181272380Y-137928571D01*
%TO.C,R1*%
X105272380Y-118833333D02*
X104796190Y-118500000D01*
X105272380Y-118261904D02*
X104272380Y-118261904D01*
X104272380Y-118642857D01*
X104320000Y-118738095D01*
X104367619Y-118785714D01*
X104462857Y-118833333D01*
X104605714Y-118833333D01*
X104700952Y-118785714D01*
X104748571Y-118738095D01*
X104796190Y-118642857D01*
X104796190Y-118261904D01*
X105272380Y-119785714D02*
X105272380Y-119214285D01*
X105272380Y-119500000D02*
X104272380Y-119500000D01*
X104415238Y-119404761D01*
X104510476Y-119309523D01*
X104558095Y-119214285D01*
%TO.C,R12*%
X143272380Y-143357142D02*
X142796190Y-143023809D01*
X143272380Y-142785714D02*
X142272380Y-142785714D01*
X142272380Y-143166666D01*
X142320000Y-143261904D01*
X142367619Y-143309523D01*
X142462857Y-143357142D01*
X142605714Y-143357142D01*
X142700952Y-143309523D01*
X142748571Y-143261904D01*
X142796190Y-143166666D01*
X142796190Y-142785714D01*
X143272380Y-144309523D02*
X143272380Y-143738095D01*
X143272380Y-144023809D02*
X142272380Y-144023809D01*
X142415238Y-143928571D01*
X142510476Y-143833333D01*
X142558095Y-143738095D01*
X142367619Y-144690476D02*
X142320000Y-144738095D01*
X142272380Y-144833333D01*
X142272380Y-145071428D01*
X142320000Y-145166666D01*
X142367619Y-145214285D01*
X142462857Y-145261904D01*
X142558095Y-145261904D01*
X142700952Y-145214285D01*
X143272380Y-144642857D01*
X143272380Y-145261904D01*
%TO.C,R4*%
X163272380Y-118833333D02*
X162796190Y-118500000D01*
X163272380Y-118261904D02*
X162272380Y-118261904D01*
X162272380Y-118642857D01*
X162320000Y-118738095D01*
X162367619Y-118785714D01*
X162462857Y-118833333D01*
X162605714Y-118833333D01*
X162700952Y-118785714D01*
X162748571Y-118738095D01*
X162796190Y-118642857D01*
X162796190Y-118261904D01*
X162605714Y-119690476D02*
X163272380Y-119690476D01*
X162224761Y-119452380D02*
X162939047Y-119214285D01*
X162939047Y-119833333D01*
%TO.C,R9*%
X163452380Y-136833333D02*
X162976190Y-136500000D01*
X163452380Y-136261904D02*
X162452380Y-136261904D01*
X162452380Y-136642857D01*
X162500000Y-136738095D01*
X162547619Y-136785714D01*
X162642857Y-136833333D01*
X162785714Y-136833333D01*
X162880952Y-136785714D01*
X162928571Y-136738095D01*
X162976190Y-136642857D01*
X162976190Y-136261904D01*
X163452380Y-137309523D02*
X163452380Y-137500000D01*
X163404761Y-137595238D01*
X163357142Y-137642857D01*
X163214285Y-137738095D01*
X163023809Y-137785714D01*
X162642857Y-137785714D01*
X162547619Y-137738095D01*
X162500000Y-137690476D01*
X162452380Y-137595238D01*
X162452380Y-137404761D01*
X162500000Y-137309523D01*
X162547619Y-137261904D01*
X162642857Y-137214285D01*
X162880952Y-137214285D01*
X162976190Y-137261904D01*
X163023809Y-137309523D01*
X163071428Y-137404761D01*
X163071428Y-137595238D01*
X163023809Y-137690476D01*
X162976190Y-137738095D01*
X162880952Y-137785714D01*
D11*
%TO.C,R6*%
X104910000Y-137727064D02*
X104910000Y-136272936D01*
X103090000Y-137727064D02*
X103090000Y-136272936D01*
%TO.C,R17*%
X134220000Y-85617936D02*
X134220000Y-87072064D01*
X136040000Y-85617936D02*
X136040000Y-87072064D01*
%TO.C,R3*%
X141090000Y-119727064D02*
X141090000Y-118272936D01*
X142910000Y-119727064D02*
X142910000Y-118272936D01*
%TO.C,R2*%
X122090000Y-119727064D02*
X122090000Y-118272936D01*
X123910000Y-119727064D02*
X123910000Y-118272936D01*
%TO.C,R7*%
X122090000Y-137727064D02*
X122090000Y-136272936D01*
X123910000Y-137727064D02*
X123910000Y-136272936D01*
%TO.C,U1*%
X97375000Y-100000000D02*
X126625000Y-100000000D01*
X126625000Y-100000000D02*
X126625000Y-80000000D01*
X126625000Y-80000000D02*
X97375000Y-80000000D01*
X97375000Y-80000000D02*
X97375000Y-100000000D01*
%TO.C,R16*%
X139040000Y-87109564D02*
X139040000Y-85655436D01*
X137220000Y-87109564D02*
X137220000Y-85655436D01*
%TO.C,R11*%
X111090000Y-140272936D02*
X111090000Y-141727064D01*
X112910000Y-140272936D02*
X112910000Y-141727064D01*
%TO.C,R8*%
X141090000Y-137727064D02*
X141090000Y-136272936D01*
X142910000Y-137727064D02*
X142910000Y-136272936D01*
%TO.C,R5*%
X179090000Y-119727064D02*
X179090000Y-118272936D01*
X180910000Y-119727064D02*
X180910000Y-118272936D01*
%TO.C,R15*%
X170910000Y-140272936D02*
X170910000Y-141727064D01*
X169090000Y-140272936D02*
X169090000Y-141727064D01*
%TO.C,U3*%
X182600000Y-94640000D02*
X182600000Y-79190000D01*
X153730000Y-94064000D02*
X153730000Y-94064000D01*
X156270000Y-93556000D02*
X156270000Y-91270000D01*
X153730000Y-83396000D02*
X153730000Y-94064000D01*
X153400000Y-94640000D02*
X153400000Y-94640000D01*
X153400000Y-79190000D02*
X153400000Y-94640000D01*
X159064000Y-94064000D02*
X159064000Y-83396000D01*
X156270000Y-91270000D02*
X153984000Y-91270000D01*
X182600000Y-79190000D02*
X153400000Y-79190000D01*
X153984000Y-91270000D02*
X153984000Y-91270000D01*
X153730000Y-83396000D02*
X153730000Y-83396000D01*
X153400000Y-94640000D02*
X182600000Y-94640000D01*
X153730000Y-94064000D02*
X159064000Y-94064000D01*
X159064000Y-83396000D02*
X153730000Y-83396000D01*
%TO.C,R13*%
X144910000Y-144727064D02*
X144910000Y-143272936D01*
X143090000Y-144727064D02*
X143090000Y-143272936D01*
%TO.C,R14*%
X147910000Y-144727064D02*
X147910000Y-143272936D01*
X146090000Y-144727064D02*
X146090000Y-143272936D01*
%TO.C,R10*%
X179090000Y-137727064D02*
X179090000Y-136272936D01*
X180910000Y-137727064D02*
X180910000Y-136272936D01*
%TO.C,R1*%
X102090000Y-119727064D02*
X102090000Y-118272936D01*
X103910000Y-119727064D02*
X103910000Y-118272936D01*
%TO.C,R12*%
X140090000Y-144727064D02*
X140090000Y-143272936D01*
X141910000Y-144727064D02*
X141910000Y-143272936D01*
%TO.C,R4*%
X160090000Y-119727064D02*
X160090000Y-118272936D01*
X161910000Y-119727064D02*
X161910000Y-118272936D01*
%TO.C,R9*%
X161910000Y-137727064D02*
X161910000Y-136272936D01*
X160090000Y-137727064D02*
X160090000Y-136272936D01*
%TD*%
M02*
