%TF.GenerationSoftware,KiCad,Pcbnew,6.0.5-a6ca702e91~116~ubuntu22.04.1*%
%TF.CreationDate,2022-07-07T11:21:45+05:30*%
%TF.ProjectId,macro_pad,6d616372-6f5f-4706-9164-2e6b69636164,rev?*%
%TF.SameCoordinates,Original*%
%TF.FileFunction,Soldermask,Bot*%
%TF.FilePolarity,Negative*%
%FSLAX46Y46*%
G04 Gerber Fmt 4.6, Leading zero omitted, Abs format (unit mm)*
G04 Created by KiCad (PCBNEW 6.0.5-a6ca702e91~116~ubuntu22.04.1) date 2022-07-07 11:21:45*
%MOMM*%
%LPD*%
G01*
G04 APERTURE LIST*
G04 Aperture macros list*
%AMRoundRect*
0 Rectangle with rounded corners*
0 $1 Rounding radius*
0 $2 $3 $4 $5 $6 $7 $8 $9 X,Y pos of 4 corners*
0 Add a 4 corners polygon primitive as box body*
4,1,4,$2,$3,$4,$5,$6,$7,$8,$9,$2,$3,0*
0 Add four circle primitives for the rounded corners*
1,1,$1+$1,$2,$3*
1,1,$1+$1,$4,$5*
1,1,$1+$1,$6,$7*
1,1,$1+$1,$8,$9*
0 Add four rect primitives between the rounded corners*
20,1,$1+$1,$2,$3,$4,$5,0*
20,1,$1+$1,$4,$5,$6,$7,0*
20,1,$1+$1,$6,$7,$8,$9,0*
20,1,$1+$1,$8,$9,$2,$3,0*%
G04 Aperture macros list end*
%ADD10R,1.000000X1.000000*%
%ADD11O,1.000000X1.000000*%
%ADD12C,1.700000*%
%ADD13C,4.000000*%
%ADD14C,2.200000*%
%ADD15R,2.200000X2.200000*%
%ADD16O,2.200000X2.200000*%
%ADD17R,1.700000X1.700000*%
%ADD18O,1.700000X1.700000*%
%ADD19C,5.000000*%
%ADD20RoundRect,0.250000X0.625000X-0.312500X0.625000X0.312500X-0.625000X0.312500X-0.625000X-0.312500X0*%
%ADD21RoundRect,0.250000X-0.625000X0.312500X-0.625000X-0.312500X0.625000X-0.312500X0.625000X0.312500X0*%
%ADD22RoundRect,0.500000X-0.500000X-0.500000X0.500000X-0.500000X0.500000X0.500000X-0.500000X0.500000X0*%
%ADD23R,1.524000X1.524000*%
%ADD24C,1.524000*%
G04 APERTURE END LIST*
D10*
%TO.C,D1*%
X147000000Y-152000000D03*
D11*
X145730000Y-152000000D03*
X144460000Y-152000000D03*
X143190000Y-152000000D03*
%TD*%
D12*
%TO.C,SW12*%
X168920000Y-151000000D03*
D13*
X174000000Y-151000000D03*
D12*
X179080000Y-151000000D03*
D14*
X176540000Y-145920000D03*
X170190000Y-148460000D03*
%TD*%
D13*
%TO.C,SW6*%
X107000000Y-132000000D03*
D12*
X101920000Y-132000000D03*
X112080000Y-132000000D03*
D14*
X109540000Y-126920000D03*
X103190000Y-129460000D03*
%TD*%
D12*
%TO.C,SW8*%
X150080000Y-132000000D03*
X139920000Y-132000000D03*
D13*
X145000000Y-132000000D03*
D14*
X147540000Y-126920000D03*
X141190000Y-129460000D03*
%TD*%
D13*
%TO.C,SW1*%
X107000000Y-113000000D03*
D12*
X101920000Y-113000000D03*
X112080000Y-113000000D03*
D14*
X109540000Y-107920000D03*
X103190000Y-110460000D03*
%TD*%
D12*
%TO.C,SW9*%
X169080000Y-132000000D03*
X158920000Y-132000000D03*
D13*
X164000000Y-132000000D03*
D14*
X166540000Y-126920000D03*
X160190000Y-129460000D03*
%TD*%
D15*
%TO.C,D2*%
X164080000Y-100000000D03*
D16*
X153920000Y-100000000D03*
%TD*%
D12*
%TO.C,SW2*%
X131080000Y-113000000D03*
D13*
X126000000Y-113000000D03*
D12*
X120920000Y-113000000D03*
D14*
X128540000Y-107920000D03*
X122190000Y-110460000D03*
%TD*%
D12*
%TO.C,SW5*%
X177920000Y-113000000D03*
D13*
X183000000Y-113000000D03*
D12*
X188080000Y-113000000D03*
D14*
X185540000Y-107920000D03*
X179190000Y-110460000D03*
%TD*%
D12*
%TO.C,SW11*%
X121080000Y-151000000D03*
X110920000Y-151000000D03*
D13*
X116000000Y-151000000D03*
D14*
X118540000Y-145920000D03*
X112190000Y-148460000D03*
%TD*%
D13*
%TO.C,SW7*%
X126000000Y-132000000D03*
D12*
X120920000Y-132000000D03*
X131080000Y-132000000D03*
D14*
X128540000Y-126920000D03*
X122190000Y-129460000D03*
%TD*%
D12*
%TO.C,SW3*%
X150080000Y-113000000D03*
D13*
X145000000Y-113000000D03*
D12*
X139920000Y-113000000D03*
D14*
X147540000Y-107920000D03*
X141190000Y-110460000D03*
%TD*%
D17*
%TO.C,J1*%
X130000000Y-85000000D03*
D18*
X130000000Y-87540000D03*
%TD*%
D19*
%TO.C,H2*%
X190000000Y-82000000D03*
%TD*%
%TO.C,H4*%
X190000000Y-156000000D03*
%TD*%
%TO.C,H3*%
X101000000Y-156000000D03*
%TD*%
D12*
%TO.C,SW10*%
X177920000Y-132000000D03*
D13*
X183000000Y-132000000D03*
D12*
X188080000Y-132000000D03*
D14*
X185540000Y-126920000D03*
X179190000Y-129460000D03*
%TD*%
D13*
%TO.C,SW4*%
X164000000Y-113000000D03*
D12*
X158920000Y-113000000D03*
X169080000Y-113000000D03*
D14*
X166540000Y-107920000D03*
X160190000Y-110460000D03*
%TD*%
D20*
%TO.C,R6*%
X104000000Y-138462500D03*
X104000000Y-135537500D03*
%TD*%
D21*
%TO.C,R17*%
X135130000Y-84882500D03*
X135130000Y-87807500D03*
%TD*%
D20*
%TO.C,R3*%
X142000000Y-120462500D03*
X142000000Y-117537500D03*
%TD*%
%TO.C,R2*%
X123000000Y-120462500D03*
X123000000Y-117537500D03*
%TD*%
%TO.C,R7*%
X123000000Y-138462500D03*
X123000000Y-135537500D03*
%TD*%
D22*
%TO.C,U1*%
X100375000Y-96750000D03*
X100375000Y-82750000D03*
X123375000Y-96750000D03*
X123375000Y-94210000D03*
X123375000Y-85290000D03*
X123375000Y-82750000D03*
%TD*%
D20*
%TO.C,R16*%
X138130000Y-87845000D03*
X138130000Y-84920000D03*
%TD*%
D21*
%TO.C,R11*%
X112000000Y-139537500D03*
X112000000Y-142462500D03*
%TD*%
D20*
%TO.C,R8*%
X142000000Y-138462500D03*
X142000000Y-135537500D03*
%TD*%
%TO.C,R5*%
X180000000Y-120462500D03*
X180000000Y-117537500D03*
%TD*%
D21*
%TO.C,R15*%
X170000000Y-139537500D03*
X170000000Y-142462500D03*
%TD*%
D23*
%TO.C,U3*%
X155000000Y-92540000D03*
D24*
X157540000Y-92540000D03*
X155000000Y-90000000D03*
X157540000Y-90000000D03*
X155000000Y-87460000D03*
X157540000Y-87460000D03*
X155000000Y-84920000D03*
X157540000Y-84920000D03*
%TD*%
D20*
%TO.C,R13*%
X144000000Y-145462500D03*
X144000000Y-142537500D03*
%TD*%
%TO.C,R14*%
X147000000Y-145462500D03*
X147000000Y-142537500D03*
%TD*%
%TO.C,R10*%
X180000000Y-138462500D03*
X180000000Y-135537500D03*
%TD*%
%TO.C,R1*%
X103000000Y-120462500D03*
X103000000Y-117537500D03*
%TD*%
%TO.C,R12*%
X141000000Y-145462500D03*
X141000000Y-142537500D03*
%TD*%
%TO.C,R4*%
X161000000Y-120462500D03*
X161000000Y-117537500D03*
%TD*%
%TO.C,R9*%
X161000000Y-138462500D03*
X161000000Y-135537500D03*
%TD*%
M02*
