%TF.GenerationSoftware,KiCad,Pcbnew,6.0.5-a6ca702e91~116~ubuntu22.04.1*%
%TF.CreationDate,2022-07-07T11:21:45+05:30*%
%TF.ProjectId,macro_pad,6d616372-6f5f-4706-9164-2e6b69636164,rev?*%
%TF.SameCoordinates,Original*%
%TF.FileFunction,Legend,Top*%
%TF.FilePolarity,Positive*%
%FSLAX46Y46*%
G04 Gerber Fmt 4.6, Leading zero omitted, Abs format (unit mm)*
G04 Created by KiCad (PCBNEW 6.0.5-a6ca702e91~116~ubuntu22.04.1) date 2022-07-07 11:21:45*
%MOMM*%
%LPD*%
G01*
G04 APERTURE LIST*
%ADD10C,0.150000*%
%ADD11C,0.120000*%
%ADD12C,0.200000*%
G04 APERTURE END LIST*
D10*
%TO.C,D1*%
X149147380Y-152738095D02*
X148147380Y-152738095D01*
X148147380Y-152500000D01*
X148195000Y-152357142D01*
X148290238Y-152261904D01*
X148385476Y-152214285D01*
X148575952Y-152166666D01*
X148718809Y-152166666D01*
X148909285Y-152214285D01*
X149004523Y-152261904D01*
X149099761Y-152357142D01*
X149147380Y-152500000D01*
X149147380Y-152738095D01*
X149147380Y-151214285D02*
X149147380Y-151785714D01*
X149147380Y-151500000D02*
X148147380Y-151500000D01*
X148290238Y-151595238D01*
X148385476Y-151690476D01*
X148433095Y-151785714D01*
%TO.C,U2*%
X112452380Y-90761904D02*
X113261904Y-90761904D01*
X113357142Y-90714285D01*
X113404761Y-90666666D01*
X113452380Y-90571428D01*
X113452380Y-90380952D01*
X113404761Y-90285714D01*
X113357142Y-90238095D01*
X113261904Y-90190476D01*
X112452380Y-90190476D01*
X112547619Y-89761904D02*
X112500000Y-89714285D01*
X112452380Y-89619047D01*
X112452380Y-89380952D01*
X112500000Y-89285714D01*
X112547619Y-89238095D01*
X112642857Y-89190476D01*
X112738095Y-89190476D01*
X112880952Y-89238095D01*
X113452380Y-89809523D01*
X113452380Y-89190476D01*
%TO.C,SW12*%
X172190476Y-142404761D02*
X172333333Y-142452380D01*
X172571428Y-142452380D01*
X172666666Y-142404761D01*
X172714285Y-142357142D01*
X172761904Y-142261904D01*
X172761904Y-142166666D01*
X172714285Y-142071428D01*
X172666666Y-142023809D01*
X172571428Y-141976190D01*
X172380952Y-141928571D01*
X172285714Y-141880952D01*
X172238095Y-141833333D01*
X172190476Y-141738095D01*
X172190476Y-141642857D01*
X172238095Y-141547619D01*
X172285714Y-141500000D01*
X172380952Y-141452380D01*
X172619047Y-141452380D01*
X172761904Y-141500000D01*
X173095238Y-141452380D02*
X173333333Y-142452380D01*
X173523809Y-141738095D01*
X173714285Y-142452380D01*
X173952380Y-141452380D01*
X174857142Y-142452380D02*
X174285714Y-142452380D01*
X174571428Y-142452380D02*
X174571428Y-141452380D01*
X174476190Y-141595238D01*
X174380952Y-141690476D01*
X174285714Y-141738095D01*
X175238095Y-141547619D02*
X175285714Y-141500000D01*
X175380952Y-141452380D01*
X175619047Y-141452380D01*
X175714285Y-141500000D01*
X175761904Y-141547619D01*
X175809523Y-141642857D01*
X175809523Y-141738095D01*
X175761904Y-141880952D01*
X175190476Y-142452380D01*
X175809523Y-142452380D01*
%TO.C,SW6*%
X105666666Y-124530761D02*
X105809523Y-124578380D01*
X106047619Y-124578380D01*
X106142857Y-124530761D01*
X106190476Y-124483142D01*
X106238095Y-124387904D01*
X106238095Y-124292666D01*
X106190476Y-124197428D01*
X106142857Y-124149809D01*
X106047619Y-124102190D01*
X105857142Y-124054571D01*
X105761904Y-124006952D01*
X105714285Y-123959333D01*
X105666666Y-123864095D01*
X105666666Y-123768857D01*
X105714285Y-123673619D01*
X105761904Y-123626000D01*
X105857142Y-123578380D01*
X106095238Y-123578380D01*
X106238095Y-123626000D01*
X106571428Y-123578380D02*
X106809523Y-124578380D01*
X107000000Y-123864095D01*
X107190476Y-124578380D01*
X107428571Y-123578380D01*
X108238095Y-123578380D02*
X108047619Y-123578380D01*
X107952380Y-123626000D01*
X107904761Y-123673619D01*
X107809523Y-123816476D01*
X107761904Y-124006952D01*
X107761904Y-124387904D01*
X107809523Y-124483142D01*
X107857142Y-124530761D01*
X107952380Y-124578380D01*
X108142857Y-124578380D01*
X108238095Y-124530761D01*
X108285714Y-124483142D01*
X108333333Y-124387904D01*
X108333333Y-124149809D01*
X108285714Y-124054571D01*
X108238095Y-124006952D01*
X108142857Y-123959333D01*
X107952380Y-123959333D01*
X107857142Y-124006952D01*
X107809523Y-124054571D01*
X107761904Y-124149809D01*
%TO.C,SW8*%
X143666666Y-124530761D02*
X143809523Y-124578380D01*
X144047619Y-124578380D01*
X144142857Y-124530761D01*
X144190476Y-124483142D01*
X144238095Y-124387904D01*
X144238095Y-124292666D01*
X144190476Y-124197428D01*
X144142857Y-124149809D01*
X144047619Y-124102190D01*
X143857142Y-124054571D01*
X143761904Y-124006952D01*
X143714285Y-123959333D01*
X143666666Y-123864095D01*
X143666666Y-123768857D01*
X143714285Y-123673619D01*
X143761904Y-123626000D01*
X143857142Y-123578380D01*
X144095238Y-123578380D01*
X144238095Y-123626000D01*
X144571428Y-123578380D02*
X144809523Y-124578380D01*
X145000000Y-123864095D01*
X145190476Y-124578380D01*
X145428571Y-123578380D01*
X145952380Y-124006952D02*
X145857142Y-123959333D01*
X145809523Y-123911714D01*
X145761904Y-123816476D01*
X145761904Y-123768857D01*
X145809523Y-123673619D01*
X145857142Y-123626000D01*
X145952380Y-123578380D01*
X146142857Y-123578380D01*
X146238095Y-123626000D01*
X146285714Y-123673619D01*
X146333333Y-123768857D01*
X146333333Y-123816476D01*
X146285714Y-123911714D01*
X146238095Y-123959333D01*
X146142857Y-124006952D01*
X145952380Y-124006952D01*
X145857142Y-124054571D01*
X145809523Y-124102190D01*
X145761904Y-124197428D01*
X145761904Y-124387904D01*
X145809523Y-124483142D01*
X145857142Y-124530761D01*
X145952380Y-124578380D01*
X146142857Y-124578380D01*
X146238095Y-124530761D01*
X146285714Y-124483142D01*
X146333333Y-124387904D01*
X146333333Y-124197428D01*
X146285714Y-124102190D01*
X146238095Y-124054571D01*
X146142857Y-124006952D01*
%TO.C,SW1*%
X105666666Y-105530761D02*
X105809523Y-105578380D01*
X106047619Y-105578380D01*
X106142857Y-105530761D01*
X106190476Y-105483142D01*
X106238095Y-105387904D01*
X106238095Y-105292666D01*
X106190476Y-105197428D01*
X106142857Y-105149809D01*
X106047619Y-105102190D01*
X105857142Y-105054571D01*
X105761904Y-105006952D01*
X105714285Y-104959333D01*
X105666666Y-104864095D01*
X105666666Y-104768857D01*
X105714285Y-104673619D01*
X105761904Y-104626000D01*
X105857142Y-104578380D01*
X106095238Y-104578380D01*
X106238095Y-104626000D01*
X106571428Y-104578380D02*
X106809523Y-105578380D01*
X107000000Y-104864095D01*
X107190476Y-105578380D01*
X107428571Y-104578380D01*
X108333333Y-105578380D02*
X107761904Y-105578380D01*
X108047619Y-105578380D02*
X108047619Y-104578380D01*
X107952380Y-104721238D01*
X107857142Y-104816476D01*
X107761904Y-104864095D01*
%TO.C,SW9*%
X143666666Y-124530761D02*
X143809523Y-124578380D01*
X144047619Y-124578380D01*
X144142857Y-124530761D01*
X144190476Y-124483142D01*
X144238095Y-124387904D01*
X144238095Y-124292666D01*
X144190476Y-124197428D01*
X144142857Y-124149809D01*
X144047619Y-124102190D01*
X143857142Y-124054571D01*
X143761904Y-124006952D01*
X143714285Y-123959333D01*
X143666666Y-123864095D01*
X143666666Y-123768857D01*
X143714285Y-123673619D01*
X143761904Y-123626000D01*
X143857142Y-123578380D01*
X144095238Y-123578380D01*
X144238095Y-123626000D01*
X144571428Y-123578380D02*
X144809523Y-124578380D01*
X145000000Y-123864095D01*
X145190476Y-124578380D01*
X145428571Y-123578380D01*
X145857142Y-124578380D02*
X146047619Y-124578380D01*
X146142857Y-124530761D01*
X146190476Y-124483142D01*
X146285714Y-124340285D01*
X146333333Y-124149809D01*
X146333333Y-123768857D01*
X146285714Y-123673619D01*
X146238095Y-123626000D01*
X146142857Y-123578380D01*
X145952380Y-123578380D01*
X145857142Y-123626000D01*
X145809523Y-123673619D01*
X145761904Y-123768857D01*
X145761904Y-124006952D01*
X145809523Y-124102190D01*
X145857142Y-124149809D01*
X145952380Y-124197428D01*
X146142857Y-124197428D01*
X146238095Y-124149809D01*
X146285714Y-124102190D01*
X146333333Y-124006952D01*
%TO.C,C1*%
X156123333Y-98297142D02*
X156075714Y-98344761D01*
X155932857Y-98392380D01*
X155837619Y-98392380D01*
X155694761Y-98344761D01*
X155599523Y-98249523D01*
X155551904Y-98154285D01*
X155504285Y-97963809D01*
X155504285Y-97820952D01*
X155551904Y-97630476D01*
X155599523Y-97535238D01*
X155694761Y-97440000D01*
X155837619Y-97392380D01*
X155932857Y-97392380D01*
X156075714Y-97440000D01*
X156123333Y-97487619D01*
X157075714Y-98392380D02*
X156504285Y-98392380D01*
X156790000Y-98392380D02*
X156790000Y-97392380D01*
X156694761Y-97535238D01*
X156599523Y-97630476D01*
X156504285Y-97678095D01*
%TO.C,D2*%
X158261904Y-100452380D02*
X158261904Y-99452380D01*
X158500000Y-99452380D01*
X158642857Y-99500000D01*
X158738095Y-99595238D01*
X158785714Y-99690476D01*
X158833333Y-99880952D01*
X158833333Y-100023809D01*
X158785714Y-100214285D01*
X158738095Y-100309523D01*
X158642857Y-100404761D01*
X158500000Y-100452380D01*
X158261904Y-100452380D01*
X159214285Y-99547619D02*
X159261904Y-99500000D01*
X159357142Y-99452380D01*
X159595238Y-99452380D01*
X159690476Y-99500000D01*
X159738095Y-99547619D01*
X159785714Y-99642857D01*
X159785714Y-99738095D01*
X159738095Y-99880952D01*
X159166666Y-100452380D01*
X159785714Y-100452380D01*
X163818095Y-102552380D02*
X163818095Y-101552380D01*
X164389523Y-102552380D02*
X163960952Y-101980952D01*
X164389523Y-101552380D02*
X163818095Y-102123809D01*
%TO.C,SW2*%
X124666666Y-105530761D02*
X124809523Y-105578380D01*
X125047619Y-105578380D01*
X125142857Y-105530761D01*
X125190476Y-105483142D01*
X125238095Y-105387904D01*
X125238095Y-105292666D01*
X125190476Y-105197428D01*
X125142857Y-105149809D01*
X125047619Y-105102190D01*
X124857142Y-105054571D01*
X124761904Y-105006952D01*
X124714285Y-104959333D01*
X124666666Y-104864095D01*
X124666666Y-104768857D01*
X124714285Y-104673619D01*
X124761904Y-104626000D01*
X124857142Y-104578380D01*
X125095238Y-104578380D01*
X125238095Y-104626000D01*
X125571428Y-104578380D02*
X125809523Y-105578380D01*
X126000000Y-104864095D01*
X126190476Y-105578380D01*
X126428571Y-104578380D01*
X126761904Y-104673619D02*
X126809523Y-104626000D01*
X126904761Y-104578380D01*
X127142857Y-104578380D01*
X127238095Y-104626000D01*
X127285714Y-104673619D01*
X127333333Y-104768857D01*
X127333333Y-104864095D01*
X127285714Y-105006952D01*
X126714285Y-105578380D01*
X127333333Y-105578380D01*
%TO.C,SW5*%
X181666666Y-105530761D02*
X181809523Y-105578380D01*
X182047619Y-105578380D01*
X182142857Y-105530761D01*
X182190476Y-105483142D01*
X182238095Y-105387904D01*
X182238095Y-105292666D01*
X182190476Y-105197428D01*
X182142857Y-105149809D01*
X182047619Y-105102190D01*
X181857142Y-105054571D01*
X181761904Y-105006952D01*
X181714285Y-104959333D01*
X181666666Y-104864095D01*
X181666666Y-104768857D01*
X181714285Y-104673619D01*
X181761904Y-104626000D01*
X181857142Y-104578380D01*
X182095238Y-104578380D01*
X182238095Y-104626000D01*
X182571428Y-104578380D02*
X182809523Y-105578380D01*
X183000000Y-104864095D01*
X183190476Y-105578380D01*
X183428571Y-104578380D01*
X184285714Y-104578380D02*
X183809523Y-104578380D01*
X183761904Y-105054571D01*
X183809523Y-105006952D01*
X183904761Y-104959333D01*
X184142857Y-104959333D01*
X184238095Y-105006952D01*
X184285714Y-105054571D01*
X184333333Y-105149809D01*
X184333333Y-105387904D01*
X184285714Y-105483142D01*
X184238095Y-105530761D01*
X184142857Y-105578380D01*
X183904761Y-105578380D01*
X183809523Y-105530761D01*
X183761904Y-105483142D01*
%TO.C,SW11*%
X114190476Y-142404761D02*
X114333333Y-142452380D01*
X114571428Y-142452380D01*
X114666666Y-142404761D01*
X114714285Y-142357142D01*
X114761904Y-142261904D01*
X114761904Y-142166666D01*
X114714285Y-142071428D01*
X114666666Y-142023809D01*
X114571428Y-141976190D01*
X114380952Y-141928571D01*
X114285714Y-141880952D01*
X114238095Y-141833333D01*
X114190476Y-141738095D01*
X114190476Y-141642857D01*
X114238095Y-141547619D01*
X114285714Y-141500000D01*
X114380952Y-141452380D01*
X114619047Y-141452380D01*
X114761904Y-141500000D01*
X115095238Y-141452380D02*
X115333333Y-142452380D01*
X115523809Y-141738095D01*
X115714285Y-142452380D01*
X115952380Y-141452380D01*
X116857142Y-142452380D02*
X116285714Y-142452380D01*
X116571428Y-142452380D02*
X116571428Y-141452380D01*
X116476190Y-141595238D01*
X116380952Y-141690476D01*
X116285714Y-141738095D01*
X117809523Y-142452380D02*
X117238095Y-142452380D01*
X117523809Y-142452380D02*
X117523809Y-141452380D01*
X117428571Y-141595238D01*
X117333333Y-141690476D01*
X117238095Y-141738095D01*
%TO.C,SW7*%
X124666666Y-124530761D02*
X124809523Y-124578380D01*
X125047619Y-124578380D01*
X125142857Y-124530761D01*
X125190476Y-124483142D01*
X125238095Y-124387904D01*
X125238095Y-124292666D01*
X125190476Y-124197428D01*
X125142857Y-124149809D01*
X125047619Y-124102190D01*
X124857142Y-124054571D01*
X124761904Y-124006952D01*
X124714285Y-123959333D01*
X124666666Y-123864095D01*
X124666666Y-123768857D01*
X124714285Y-123673619D01*
X124761904Y-123626000D01*
X124857142Y-123578380D01*
X125095238Y-123578380D01*
X125238095Y-123626000D01*
X125571428Y-123578380D02*
X125809523Y-124578380D01*
X126000000Y-123864095D01*
X126190476Y-124578380D01*
X126428571Y-123578380D01*
X126714285Y-123578380D02*
X127380952Y-123578380D01*
X126952380Y-124578380D01*
%TO.C,SW3*%
X143666666Y-105530761D02*
X143809523Y-105578380D01*
X144047619Y-105578380D01*
X144142857Y-105530761D01*
X144190476Y-105483142D01*
X144238095Y-105387904D01*
X144238095Y-105292666D01*
X144190476Y-105197428D01*
X144142857Y-105149809D01*
X144047619Y-105102190D01*
X143857142Y-105054571D01*
X143761904Y-105006952D01*
X143714285Y-104959333D01*
X143666666Y-104864095D01*
X143666666Y-104768857D01*
X143714285Y-104673619D01*
X143761904Y-104626000D01*
X143857142Y-104578380D01*
X144095238Y-104578380D01*
X144238095Y-104626000D01*
X144571428Y-104578380D02*
X144809523Y-105578380D01*
X145000000Y-104864095D01*
X145190476Y-105578380D01*
X145428571Y-104578380D01*
X145714285Y-104578380D02*
X146333333Y-104578380D01*
X146000000Y-104959333D01*
X146142857Y-104959333D01*
X146238095Y-105006952D01*
X146285714Y-105054571D01*
X146333333Y-105149809D01*
X146333333Y-105387904D01*
X146285714Y-105483142D01*
X146238095Y-105530761D01*
X146142857Y-105578380D01*
X145857142Y-105578380D01*
X145761904Y-105530761D01*
X145714285Y-105483142D01*
%TO.C,J1*%
X129666666Y-82122380D02*
X129666666Y-82836666D01*
X129619047Y-82979523D01*
X129523809Y-83074761D01*
X129380952Y-83122380D01*
X129285714Y-83122380D01*
X130666666Y-83122380D02*
X130095238Y-83122380D01*
X130380952Y-83122380D02*
X130380952Y-82122380D01*
X130285714Y-82265238D01*
X130190476Y-82360476D01*
X130095238Y-82408095D01*
%TO.C,H2*%
X189238095Y-76452380D02*
X189238095Y-75452380D01*
X189238095Y-75928571D02*
X189809523Y-75928571D01*
X189809523Y-76452380D02*
X189809523Y-75452380D01*
X190238095Y-75547619D02*
X190285714Y-75500000D01*
X190380952Y-75452380D01*
X190619047Y-75452380D01*
X190714285Y-75500000D01*
X190761904Y-75547619D01*
X190809523Y-75642857D01*
X190809523Y-75738095D01*
X190761904Y-75880952D01*
X190190476Y-76452380D01*
X190809523Y-76452380D01*
%TO.C,H4*%
X189238095Y-150452380D02*
X189238095Y-149452380D01*
X189238095Y-149928571D02*
X189809523Y-149928571D01*
X189809523Y-150452380D02*
X189809523Y-149452380D01*
X190714285Y-149785714D02*
X190714285Y-150452380D01*
X190476190Y-149404761D02*
X190238095Y-150119047D01*
X190857142Y-150119047D01*
%TO.C,H3*%
X100238095Y-150452380D02*
X100238095Y-149452380D01*
X100238095Y-149928571D02*
X100809523Y-149928571D01*
X100809523Y-150452380D02*
X100809523Y-149452380D01*
X101190476Y-149452380D02*
X101809523Y-149452380D01*
X101476190Y-149833333D01*
X101619047Y-149833333D01*
X101714285Y-149880952D01*
X101761904Y-149928571D01*
X101809523Y-150023809D01*
X101809523Y-150261904D01*
X101761904Y-150357142D01*
X101714285Y-150404761D01*
X101619047Y-150452380D01*
X101333333Y-150452380D01*
X101238095Y-150404761D01*
X101190476Y-150357142D01*
%TO.C,SW10*%
X162190476Y-124530761D02*
X162333333Y-124578380D01*
X162571428Y-124578380D01*
X162666666Y-124530761D01*
X162714285Y-124483142D01*
X162761904Y-124387904D01*
X162761904Y-124292666D01*
X162714285Y-124197428D01*
X162666666Y-124149809D01*
X162571428Y-124102190D01*
X162380952Y-124054571D01*
X162285714Y-124006952D01*
X162238095Y-123959333D01*
X162190476Y-123864095D01*
X162190476Y-123768857D01*
X162238095Y-123673619D01*
X162285714Y-123626000D01*
X162380952Y-123578380D01*
X162619047Y-123578380D01*
X162761904Y-123626000D01*
X163095238Y-123578380D02*
X163333333Y-124578380D01*
X163523809Y-123864095D01*
X163714285Y-124578380D01*
X163952380Y-123578380D01*
X164857142Y-124578380D02*
X164285714Y-124578380D01*
X164571428Y-124578380D02*
X164571428Y-123578380D01*
X164476190Y-123721238D01*
X164380952Y-123816476D01*
X164285714Y-123864095D01*
X165476190Y-123578380D02*
X165571428Y-123578380D01*
X165666666Y-123626000D01*
X165714285Y-123673619D01*
X165761904Y-123768857D01*
X165809523Y-123959333D01*
X165809523Y-124197428D01*
X165761904Y-124387904D01*
X165714285Y-124483142D01*
X165666666Y-124530761D01*
X165571428Y-124578380D01*
X165476190Y-124578380D01*
X165380952Y-124530761D01*
X165333333Y-124483142D01*
X165285714Y-124387904D01*
X165238095Y-124197428D01*
X165238095Y-123959333D01*
X165285714Y-123768857D01*
X165333333Y-123673619D01*
X165380952Y-123626000D01*
X165476190Y-123578380D01*
%TO.C,SW4*%
X162666666Y-105530761D02*
X162809523Y-105578380D01*
X163047619Y-105578380D01*
X163142857Y-105530761D01*
X163190476Y-105483142D01*
X163238095Y-105387904D01*
X163238095Y-105292666D01*
X163190476Y-105197428D01*
X163142857Y-105149809D01*
X163047619Y-105102190D01*
X162857142Y-105054571D01*
X162761904Y-105006952D01*
X162714285Y-104959333D01*
X162666666Y-104864095D01*
X162666666Y-104768857D01*
X162714285Y-104673619D01*
X162761904Y-104626000D01*
X162857142Y-104578380D01*
X163095238Y-104578380D01*
X163238095Y-104626000D01*
X163571428Y-104578380D02*
X163809523Y-105578380D01*
X164000000Y-104864095D01*
X164190476Y-105578380D01*
X164428571Y-104578380D01*
X165238095Y-104911714D02*
X165238095Y-105578380D01*
X165000000Y-104530761D02*
X164761904Y-105245047D01*
X165380952Y-105245047D01*
D11*
%TO.C,D1*%
X142495000Y-150890000D02*
X142495000Y-151692470D01*
X146240000Y-153110000D02*
X142495000Y-153110000D01*
X142495000Y-152307530D02*
X142495000Y-153110000D01*
X146240000Y-150890000D02*
X142495000Y-150890000D01*
X147000000Y-150890000D02*
X147760000Y-150890000D01*
X146240000Y-152563471D02*
X146240000Y-153110000D01*
X146240000Y-150890000D02*
X146240000Y-151436529D01*
X147760000Y-150890000D02*
X147760000Y-152000000D01*
D12*
%TO.C,U2*%
X97500000Y-102500000D02*
X150500000Y-102500000D01*
X150500000Y-102500000D02*
X150500000Y-77500000D01*
X150500000Y-77500000D02*
X97500000Y-77500000D01*
X97500000Y-77500000D02*
X97500000Y-102500000D01*
D11*
%TO.C,SW12*%
X180985000Y-157985000D02*
X167015000Y-157985000D01*
X180985000Y-144015000D02*
X180985000Y-157985000D01*
X167015000Y-157985000D02*
X167015000Y-144015000D01*
X167015000Y-144015000D02*
X180985000Y-144015000D01*
%TO.C,SW6*%
X100015000Y-138985000D02*
X100015000Y-125015000D01*
X113985000Y-125015000D02*
X113985000Y-138985000D01*
X113985000Y-138985000D02*
X100015000Y-138985000D01*
X100015000Y-125015000D02*
X113985000Y-125015000D01*
%TO.C,SW8*%
X138015000Y-138985000D02*
X138015000Y-125015000D01*
X151985000Y-138985000D02*
X138015000Y-138985000D01*
X151985000Y-125015000D02*
X151985000Y-138985000D01*
X138015000Y-125015000D02*
X151985000Y-125015000D01*
%TO.C,SW1*%
X113985000Y-119985000D02*
X100015000Y-119985000D01*
X113985000Y-106015000D02*
X113985000Y-119985000D01*
X100015000Y-106015000D02*
X113985000Y-106015000D01*
X100015000Y-119985000D02*
X100015000Y-106015000D01*
%TO.C,SW9*%
X157015000Y-125015000D02*
X170985000Y-125015000D01*
X170985000Y-138985000D02*
X157015000Y-138985000D01*
X157015000Y-138985000D02*
X157015000Y-125015000D01*
X170985000Y-125015000D02*
X170985000Y-138985000D01*
%TO.C,C1*%
X156551252Y-95525000D02*
X156028748Y-95525000D01*
X156551252Y-96995000D02*
X156028748Y-96995000D01*
%TO.C,D2*%
X161720000Y-101470000D02*
X161720000Y-98530000D01*
X160820000Y-101470000D02*
X160820000Y-98530000D01*
X160700000Y-101470000D02*
X160700000Y-98530000D01*
X161720000Y-98530000D02*
X156280000Y-98530000D01*
X156280000Y-98530000D02*
X156280000Y-101470000D01*
X160940000Y-101470000D02*
X160940000Y-98530000D01*
X155260000Y-100000000D02*
X156280000Y-100000000D01*
X162740000Y-100000000D02*
X161720000Y-100000000D01*
X156280000Y-101470000D02*
X161720000Y-101470000D01*
%TO.C,SW2*%
X119015000Y-106015000D02*
X132985000Y-106015000D01*
X132985000Y-119985000D02*
X119015000Y-119985000D01*
X119015000Y-119985000D02*
X119015000Y-106015000D01*
X132985000Y-106015000D02*
X132985000Y-119985000D01*
%TO.C,SW5*%
X189985000Y-119985000D02*
X176015000Y-119985000D01*
X176015000Y-119985000D02*
X176015000Y-106015000D01*
X189985000Y-106015000D02*
X189985000Y-119985000D01*
X176015000Y-106015000D02*
X189985000Y-106015000D01*
%TO.C,SW11*%
X122985000Y-144015000D02*
X122985000Y-157985000D01*
X109015000Y-157985000D02*
X109015000Y-144015000D01*
X109015000Y-144015000D02*
X122985000Y-144015000D01*
X122985000Y-157985000D02*
X109015000Y-157985000D01*
%TO.C,SW7*%
X119015000Y-138985000D02*
X119015000Y-125015000D01*
X119015000Y-125015000D02*
X132985000Y-125015000D01*
X132985000Y-138985000D02*
X119015000Y-138985000D01*
X132985000Y-125015000D02*
X132985000Y-138985000D01*
%TO.C,SW3*%
X151985000Y-106015000D02*
X151985000Y-119985000D01*
X138015000Y-106015000D02*
X151985000Y-106015000D01*
X151985000Y-119985000D02*
X138015000Y-119985000D01*
X138015000Y-119985000D02*
X138015000Y-106015000D01*
%TO.C,J1*%
X128670000Y-86270000D02*
X128670000Y-88870000D01*
X128670000Y-83670000D02*
X130000000Y-83670000D01*
X128670000Y-88870000D02*
X131330000Y-88870000D01*
X128670000Y-85000000D02*
X128670000Y-83670000D01*
X128670000Y-86270000D02*
X131330000Y-86270000D01*
X131330000Y-86270000D02*
X131330000Y-88870000D01*
%TO.C,SW10*%
X176015000Y-125015000D02*
X189985000Y-125015000D01*
X176015000Y-138985000D02*
X176015000Y-125015000D01*
X189985000Y-138985000D02*
X176015000Y-138985000D01*
X189985000Y-125015000D02*
X189985000Y-138985000D01*
%TO.C,SW4*%
X157015000Y-106015000D02*
X170985000Y-106015000D01*
X170985000Y-119985000D02*
X157015000Y-119985000D01*
X157015000Y-119985000D02*
X157015000Y-106015000D01*
X170985000Y-106015000D02*
X170985000Y-119985000D01*
%TD*%
M02*
